HIERARCHY
ROOT mixamorig:Hips
{
	OFFSET 0.000000 201.639420 0.000000
	CHANNELS 6 Xposition Yposition Zposition Xrotation Yrotation Zrotation
	JOINT mixamorig:Spine
	{
		OFFSET 0.006200 19.524994 -2.481800
		CHANNELS 3 Xrotation Yrotation Zrotation
		JOINT mixamorig:Spine1
		{
			OFFSET -0.000900 22.835007 -2.825400
			CHANNELS 3 Xrotation Yrotation Zrotation
			JOINT mixamorig:Spine2
			{
				OFFSET -0.020600 26.552490 -3.193300
				CHANNELS 3 Xrotation Yrotation Zrotation
				JOINT mixamorig:Neck
				{
					OFFSET -0.060000 30.701813 1.352200
					CHANNELS 3 Xrotation Yrotation Zrotation
					JOINT mixamorig:Head
					{
						OFFSET -0.087200 22.547607 3.670900
						CHANNELS 3 Xrotation Yrotation Zrotation
						JOINT mixamorig:HeadTop_End
						{
							OFFSET -0.830600 40.355194 7.893500
							CHANNELS 3 Xrotation Yrotation Zrotation
							End Site
							{
								OFFSET 0.000000 30.592346 0.000000
							}
						}
						JOINT mixamorig:RightEye
						{
							OFFSET -6.302100 18.118591 16.197100
							CHANNELS 3 Xrotation Yrotation Zrotation
							End Site
							{
								OFFSET 0.000000 30.592346 0.000000
							}
						}
						JOINT mixamorig:LeftEye
						{
							OFFSET 6.741500 18.382690 16.401899
							CHANNELS 3 Xrotation Yrotation Zrotation
							End Site
							{
								OFFSET 0.000000 30.592346 0.000000
							}
						}
					}
				}
				JOINT mixamorig:LeftShoulder
				{
					OFFSET 11.924900 18.230499 1.425400
					CHANNELS 3 Xrotation Yrotation Zrotation
					JOINT mixamorig:LeftArm
					{
						OFFSET 25.435989 -0.697632 -5.229300
						CHANNELS 3 Xrotation Yrotation Zrotation
						JOINT mixamorig:LeftForeArm
						{
							OFFSET 54.684776 0.000000 0.000000
							CHANNELS 3 Xrotation Yrotation Zrotation
							JOINT mixamorig:LeftHand
							{
								OFFSET 55.098175 0.000000 0.000000
								CHANNELS 3 Xrotation Yrotation Zrotation
								JOINT mixamorig:LeftHandMiddle1
								{
									OFFSET 23.369751 0.000000 0.000000
									CHANNELS 3 Xrotation Yrotation Zrotation
									JOINT mixamorig:LeftHandMiddle2
									{
										OFFSET 6.378677 0.000000 0.000000
										CHANNELS 3 Xrotation Yrotation Zrotation
										JOINT mixamorig:LeftHandMiddle3
										{
											OFFSET 6.148331 0.000000 0.000000
											CHANNELS 3 Xrotation Yrotation Zrotation
											JOINT mixamorig:LeftHandMiddle4
											{
												OFFSET 6.582504 0.000000 0.000000
												CHANNELS 3 Xrotation Yrotation Zrotation
												End Site
												{
													OFFSET -1.168900 6.395691 1.028606
												}
											}
										}
									}
								}
								JOINT mixamorig:LeftHandThumb1
								{
									OFFSET 7.235672 -3.848206 5.434273
									CHANNELS 3 Xrotation Yrotation Zrotation
									JOINT mixamorig:LeftHandThumb2
									{
										OFFSET 6.568451 -3.792297 3.792300
										CHANNELS 3 Xrotation Yrotation Zrotation
										JOINT mixamorig:LeftHandThumb3
										{
											OFFSET 6.063080 -3.500519 3.500518
											CHANNELS 3 Xrotation Yrotation Zrotation
											JOINT mixamorig:LeftHandThumb4
											{
												OFFSET 4.793182 -2.767334 2.767349
												CHANNELS 3 Xrotation Yrotation Zrotation
												End Site
												{
													OFFSET 0.101639 6.054260 1.275483
												}
											}
										}
									}
								}
								JOINT mixamorig:LeftHandIndex1
								{
									OFFSET 23.101074 -0.309540 4.992809
									CHANNELS 3 Xrotation Yrotation Zrotation
									JOINT mixamorig:LeftHandIndex2
									{
										OFFSET 6.226883 0.000000 0.000000
										CHANNELS 3 Xrotation Yrotation Zrotation
										JOINT mixamorig:LeftHandIndex3
										{
											OFFSET 6.094330 0.000000 0.000000
											CHANNELS 3 Xrotation Yrotation Zrotation
											JOINT mixamorig:LeftHandIndex4
											{
												OFFSET 5.482605 0.000000 0.000000
												CHANNELS 3 Xrotation Yrotation Zrotation
												End Site
												{
													OFFSET -1.427902 5.233032 0.797164
												}
											}
										}
									}
								}
								JOINT mixamorig:LeftHandRing1
								{
									OFFSET 22.299240 0.021149 -3.964172
									CHANNELS 3 Xrotation Yrotation Zrotation
									JOINT mixamorig:LeftHandRing2
									{
										OFFSET 6.321869 0.000000 0.000000
										CHANNELS 3 Xrotation Yrotation Zrotation
										JOINT mixamorig:LeftHandRing3
										{
											OFFSET 5.899796 0.000000 0.000000
											CHANNELS 3 Xrotation Yrotation Zrotation
											JOINT mixamorig:LeftHandRing4
											{
												OFFSET 6.517899 0.000000 0.000000
												CHANNELS 3 Xrotation Yrotation Zrotation
												End Site
												{
													OFFSET -1.637299 6.232208 0.980890
												}
											}
										}
									}
								}
								JOINT mixamorig:LeftHandPinky1
								{
									OFFSET 20.463791 -0.302338 -8.562233
									CHANNELS 3 Xrotation Yrotation Zrotation
									JOINT mixamorig:LeftHandPinky2
									{
										OFFSET 6.908646 0.000000 0.000000
										CHANNELS 3 Xrotation Yrotation Zrotation
										JOINT mixamorig:LeftHandPinky3
										{
											OFFSET 4.622849 0.000000 0.000000
											CHANNELS 3 Xrotation Yrotation Zrotation
											JOINT mixamorig:LeftHandPinky4
											{
												OFFSET 5.216080 0.000000 0.000000
												CHANNELS 3 Xrotation Yrotation Zrotation
												End Site
												{
													OFFSET -0.606308 5.116241 0.814926
												}
											}
										}
									}
								}
							}
						}
					}
				}
				JOINT mixamorig:RightShoulder
				{
					OFFSET -12.001300 18.284088 1.348900
					CHANNELS 3 Xrotation Yrotation Zrotation
					JOINT mixamorig:RightArm
					{
						OFFSET -25.308500 -0.751312 -5.164599
						CHANNELS 3 Xrotation Yrotation Zrotation
						JOINT mixamorig:RightForeArm
						{
							OFFSET -54.684429 0.000000 0.000000
							CHANNELS 3 Xrotation Yrotation Zrotation
							JOINT mixamorig:RightHand
							{
								OFFSET -55.150291 0.000000 0.000000
								CHANNELS 3 Xrotation Yrotation Zrotation
								JOINT mixamorig:RightHandMiddle1
								{
									OFFSET -23.317566 0.000000 0.000000
									CHANNELS 3 Xrotation Yrotation Zrotation
									JOINT mixamorig:RightHandMiddle2
									{
										OFFSET -6.378403 0.000000 0.000000
										CHANNELS 3 Xrotation Yrotation Zrotation
										JOINT mixamorig:RightHandMiddle3
										{
											OFFSET -6.148193 0.000000 0.000000
											CHANNELS 3 Xrotation Yrotation Zrotation
											JOINT mixamorig:RightHandMiddle4
											{
												OFFSET -6.583389 0.000000 0.000000
												CHANNELS 3 Xrotation Yrotation Zrotation
												End Site
												{
													OFFSET 1.171692 6.395905 1.029786
												}
											}
										}
									}
								}
								JOINT mixamorig:RightHandThumb1
								{
									OFFSET -7.190521 -3.860474 5.435846
									CHANNELS 3 Xrotation Yrotation Zrotation
									JOINT mixamorig:RightHandThumb2
									{
										OFFSET -6.567429 -3.791718 3.791708
										CHANNELS 3 Xrotation Yrotation Zrotation
										JOINT mixamorig:RightHandThumb3
										{
											OFFSET -6.062469 -3.500153 3.500166
											CHANNELS 3 Xrotation Yrotation Zrotation
											JOINT mixamorig:RightHandThumb4
											{
												OFFSET -4.792618 -2.767029 2.767022
												CHANNELS 3 Xrotation Yrotation Zrotation
												End Site
												{
													OFFSET -0.100327 6.053253 1.276754
												}
											}
										}
									}
								}
								JOINT mixamorig:RightHandIndex1
								{
									OFFSET -23.048981 -0.310791 4.992554
									CHANNELS 3 Xrotation Yrotation Zrotation
									JOINT mixamorig:RightHandIndex2
									{
										OFFSET -6.227539 0.000000 0.000000
										CHANNELS 3 Xrotation Yrotation Zrotation
										JOINT mixamorig:RightHandIndex3
										{
											OFFSET -6.095047 0.000000 0.000000
											CHANNELS 3 Xrotation Yrotation Zrotation
											JOINT mixamorig:RightHandIndex4
											{
												OFFSET -5.484772 0.000000 0.000000
												CHANNELS 3 Xrotation Yrotation Zrotation
												End Site
												{
													OFFSET 1.420593 5.237305 0.797056
												}
											}
										}
									}
								}
								JOINT mixamorig:RightHandRing1
								{
									OFFSET -22.246323 0.020569 -3.963762
									CHANNELS 3 Xrotation Yrotation Zrotation
									JOINT mixamorig:RightHandRing2
									{
										OFFSET -6.322128 0.000000 0.000000
										CHANNELS 3 Xrotation Yrotation Zrotation
										JOINT mixamorig:RightHandRing3
										{
											OFFSET -5.900024 0.000000 0.000000
											CHANNELS 3 Xrotation Yrotation Zrotation
											JOINT mixamorig:RightHandRing4
											{
												OFFSET -6.518356 0.000000 0.000000
												CHANNELS 3 Xrotation Yrotation Zrotation
												End Site
												{
													OFFSET 1.636398 6.232697 0.982186
												}
											}
										}
									}
								}
								JOINT mixamorig:RightHandPinky1
								{
									OFFSET -20.411011 -0.303314 -8.561701
									CHANNELS 3 Xrotation Yrotation Zrotation
									JOINT mixamorig:RightHandPinky2
									{
										OFFSET -6.907349 0.000000 0.000000
										CHANNELS 3 Xrotation Yrotation Zrotation
										JOINT mixamorig:RightHandPinky3
										{
											OFFSET -4.623840 0.000000 0.000000
											CHANNELS 3 Xrotation Yrotation Zrotation
											JOINT mixamorig:RightHandPinky4
											{
												OFFSET -5.218353 0.000000 0.000000
												CHANNELS 3 Xrotation Yrotation Zrotation
												End Site
												{
													OFFSET 0.602097 5.118835 0.816273
												}
											}
										}
									}
								}
							}
						}
					}
				}
			}
		}
	}
	JOINT mixamorig:LeftUpLeg
	{
		OFFSET 18.168400 -13.561905 -0.039000
		CHANNELS 3 Xrotation Yrotation Zrotation
		JOINT mixamorig:LeftLeg
		{
			OFFSET 0.577358 -80.825211 -3.695000
			CHANNELS 3 Xrotation Yrotation Zrotation
			JOINT mixamorig:LeftFoot
			{
				OFFSET -0.577356 -83.370262 -6.520700
				CHANNELS 3 Xrotation Yrotation Zrotation
				JOINT mixamorig:LeftToeBase
				{
					OFFSET 0.750401 -20.798306 25.135401
					CHANNELS 3 Xrotation Yrotation Zrotation
					JOINT mixamorig:LeftToe_End
					{
						OFFSET -0.000500 0.001200 19.917799
						CHANNELS 3 Xrotation Yrotation Zrotation
						End Site
						{
							OFFSET 0.000000 19.917805 0.000000
						}
					}
				}
			}
		}
	}
	JOINT mixamorig:RightUpLeg
	{
		OFFSET -18.162500 -13.585098 -0.041000
		CHANNELS 3 Xrotation Yrotation Zrotation
		JOINT mixamorig:RightLeg
		{
			OFFSET -0.595024 -80.945297 -3.631900
			CHANNELS 3 Xrotation Yrotation Zrotation
			JOINT mixamorig:RightFoot
			{
				OFFSET 0.595024 -83.218193 -6.561200
				CHANNELS 3 Xrotation Yrotation Zrotation
				JOINT mixamorig:RightToeBase
				{
					OFFSET -0.753601 -20.807106 25.115000
					CHANNELS 3 Xrotation Yrotation Zrotation
					JOINT mixamorig:RightToe_End
					{
						OFFSET 0.000299 0.001700 19.918200
						CHANNELS 3 Xrotation Yrotation Zrotation
						End Site
						{
							OFFSET 0.000000 19.918203 0.000000
						}
					}
				}
			}
		}
	}
}
MOTION
Frames: 6
Frame Time: 0.033333
-1.580923 259.485962 83.831497 3.989243 -4.632887 8.082443 4.187793 0.138076 -6.574992 7.916672 1.393961 -4.016640 7.374772 0.637523 -4.582103 -11.729008 0.725238 -1.491220 -16.322597 1.171139 0.407600 0.000000 0.000000 -0.000000 0.000000 0.000000 -0.000000 0.000000 0.000000 -0.000000 0.085448 8.792661 -12.087625 -21.381765 -13.078063 -62.996310 0.000001 -7.005772 -0.000004 10.874004 5.585593 -6.465433 0.284517 3.952522 -15.747542 0.200037 1.519327 -15.000318 0.211996 1.563230 -15.444615 -0.000001 -0.000001 0.000004 -5.168832 8.914441 7.632047 5.984806 12.669587 1.353362 -7.330845 -0.411352 13.152309 0.000001 0.000002 0.000004 0.231366 3.750773 -13.708240 0.100080 1.079380 -10.594405 0.100091 1.079380 -10.594395 -0.000002 0.000001 -0.000002 0.446384 4.441610 -20.786808 0.388988 2.100953 -20.976387 0.412089 2.160212 -21.597963 -0.000000 -0.000000 -0.000006 0.842861 5.276723 -29.845154 0.625731 2.636332 -26.700243 0.625744 2.636338 -26.700234 0.000000 -0.000002 0.000003 1.172982 2.035983 11.058057 -7.131687 20.100424 50.571120 -0.000010 35.593601 0.000014 24.291141 12.753999 18.815638 0.182903 -3.394920 13.801219 0.129286 -1.090877 13.517901 0.137021 -1.122559 13.918174 -0.000001 -0.000000 -0.000002 -6.154703 -7.385306 -7.071927 6.367665 -14.469899 -2.116755 -5.500302 -5.521566 -14.723023 0.000001 0.000001 -0.000002 0.161330 -3.303295 12.644325 0.074154 -0.828652 10.227199 0.074155 -0.828665 10.227182 0.000002 -0.000001 -0.000001 0.267856 -3.696085 17.647838 0.230479 -1.448341 18.081778 0.244192 -1.489721 18.617330 0.000000 0.000001 -0.000001 0.484136 -4.249399 24.958245 0.356026 -1.787555 22.526299 0.356026 -1.787541 22.526312 0.000000 -0.000000 0.000000 -51.706820 8.563859 1.058061 73.729939 3.799660 -6.747144 -25.233268 0.291090 0.171129 -0.304750 0.000003 0.000002 -0.000000 0.000001 0.000000 -30.862476 1.518037 -10.477613 53.096548 7.826160 0.487522 10.888583 6.306719 8.864067 5.786512 0.000000 0.000001 -0.000001 -0.000000 -0.000000 
-1.402925 263.095093 86.345924 3.304568 -4.037595 7.338093 4.112953 -0.134741 -6.506682 7.895020 0.484640 -3.666328 7.339253 -0.292658 -4.250853 -11.645656 0.784331 -1.148375 -16.119072 1.973234 0.522549 0.000000 -0.000000 0.000000 0.000000 -0.000000 0.000000 0.000000 -0.000000 0.000000 0.058903 8.333125 -11.573317 -23.230609 -12.893836 -63.608896 0.000004 -8.887609 0.000015 12.243898 4.642296 -7.075601 0.284513 3.952522 -15.747539 0.200034 1.519327 -15.000318 0.211994 1.563229 -15.444612 0.000001 -0.000001 -0.000005 -5.168836 8.914444 7.632047 5.984808 12.669587 1.353364 -7.330847 -0.411351 13.152307 0.000001 -0.000000 -0.000000 0.231366 3.750773 -13.708240 0.100076 1.079379 -10.594403 0.100087 1.079380 -10.594399 -0.000000 -0.000000 -0.000001 0.446383 4.441608 -20.786805 0.388988 2.100952 -20.976390 0.412084 2.160211 -21.597967 -0.000003 0.000001 -0.000001 0.842862 5.276722 -29.845150 0.625730 2.636333 -26.700244 0.625743 2.636335 -26.700236 0.000000 -0.000001 0.000001 1.200293 1.972578 11.316601 -7.314164 19.870169 51.229065 -0.000000 34.006539 0.000008 24.296641 12.845311 19.634340 0.182904 -3.394920 13.801219 0.129288 -1.090878 13.517903 0.137021 -1.122557 13.918175 0.000002 -0.000001 -0.000000 -6.154699 -7.385302 -7.071931 6.367667 -14.469901 -2.116762 -5.500303 -5.521571 -14.723021 0.000002 0.000001 0.000003 0.161332 -3.303294 12.644324 0.074152 -0.828649 10.227197 0.074156 -0.828667 10.227182 0.000002 0.000001 -0.000000 0.267856 -3.696084 17.647838 0.230481 -1.448341 18.081778 0.244191 -1.489720 18.617327 -0.000001 -0.000000 -0.000003 0.484134 -4.249397 24.958244 0.356024 -1.787555 22.526299 0.356021 -1.787542 22.526314 -0.000001 -0.000000 0.000001 -48.020960 6.588102 0.408448 70.248113 4.396806 -7.684307 -24.719377 0.248267 0.167314 -0.581116 -0.000002 0.000001 0.000000 0.000001 0.000000 -35.750177 3.012392 -8.971987 66.091561 8.509908 0.275495 9.394220 0.773671 7.569270 6.663634 -0.000001 -0.000002 -0.000002 -0.000000 -0.000001 
-1.099213 267.002838 88.781219 2.657168 -3.439651 6.172876 4.062894 -0.395474 -6.022636 7.931741 -0.368563 -3.216395 7.506742 -0.883110 -3.690716 -11.395036 0.801097 -0.710975 -15.508791 2.673859 0.826082 0.000000 0.000000 0.000000 0.000000 0.000000 0.000000 0.000000 0.000000 0.000000 0.031829 7.954888 -11.223772 -24.754533 -13.505405 -63.659795 -0.000004 -11.071933 -0.000013 11.705595 3.837344 -7.425076 0.284518 3.952522 -15.747537 0.200034 1.519328 -15.000318 0.211994 1.563229 -15.444613 0.000001 -0.000002 0.000000 -5.168833 8.914440 7.632047 5.984805 12.669589 1.353367 -7.330840 -0.411353 13.152311 0.000000 0.000001 -0.000000 0.231369 3.750774 -13.708240 0.100073 1.079379 -10.594403 0.100089 1.079379 -10.594399 0.000001 0.000000 -0.000000 0.446387 4.441610 -20.786805 0.388987 2.100952 -20.976387 0.412090 2.160214 -21.597963 0.000001 0.000000 -0.000002 0.842865 5.276721 -29.845147 0.625733 2.636332 -26.700241 0.625743 2.636335 -26.700239 0.000000 -0.000000 0.000001 1.217506 1.881145 11.590885 -7.902991 19.287621 52.124869 -0.000002 32.108033 0.000010 24.580287 12.548956 19.937320 0.182899 -3.394919 13.801217 0.129287 -1.090878 13.517900 0.137020 -1.122558 13.918185 0.000000 0.000002 -0.000003 -6.154706 -7.385303 -7.071931 6.367672 -14.469901 -2.116758 -5.500306 -5.521565 -14.723021 -0.000001 -0.000000 0.000001 0.161327 -3.303294 12.644321 0.074149 -0.828649 10.227195 0.074151 -0.828665 10.227181 -0.000000 -0.000000 -0.000001 0.267851 -3.696085 17.647836 0.230478 -1.448342 18.081780 0.244191 -1.489721 18.617332 -0.000001 -0.000000 -0.000001 0.484129 -4.249397 24.958244 0.356024 -1.787555 22.526299 0.356021 -1.787539 22.526312 0.000001 -0.000001 -0.000002 -44.310391 6.960485 0.244140 66.146666 3.964229 -6.085726 -23.889842 0.251237 0.178907 -0.581115 0.000004 0.000002 -0.000000 0.000000 0.000000 -41.508255 3.425172 -7.273528 79.583097 6.477531 0.201378 5.182088 -0.441852 5.178566 7.506189 0.000001 -0.000002 -0.000001 -0.000000 -0.000001 
-0.614812 271.546631 91.495659 2.144270 -3.226104 4.234763 4.112725 -0.555727 -5.115527 8.157245 -0.933504 -2.437774 7.876131 -1.063524 -2.927342 -10.817674 0.816624 -0.213847 -14.174435 3.448979 1.167373 0.000000 0.000000 -0.000000 0.000000 0.000000 -0.000000 0.000000 0.000000 -0.000000 -0.003300 7.851695 -11.209834 -25.418085 -15.729147 -63.101830 -0.000001 -14.512246 -0.000010 7.729143 3.293225 -7.258040 0.284512 3.952524 -15.747541 0.200033 1.519328 -15.000313 0.211992 1.563230 -15.444613 -0.000004 -0.000001 0.000001 -5.168834 8.914442 7.632044 5.984806 12.669588 1.353369 -7.330841 -0.411352 13.152310 0.000001 -0.000001 -0.000001 0.231366 3.750774 -13.708243 0.100078 1.079378 -10.594405 0.100088 1.079380 -10.594394 -0.000002 0.000001 -0.000000 0.446383 4.441613 -20.786808 0.388990 2.100951 -20.976389 0.412092 2.160211 -21.597963 -0.000003 0.000001 0.000003 0.842860 5.276724 -29.845150 0.625734 2.636333 -26.700241 0.625742 2.636336 -26.700237 -0.000002 0.000001 0.000001 1.212649 1.891500 11.651239 -9.546761 17.816132 53.384093 -0.000013 30.199275 0.000026 25.367275 11.218528 19.320399 0.182898 -3.394919 13.801220 0.129287 -1.090876 13.517904 0.137021 -1.122558 13.918180 0.000001 0.000001 -0.000001 -6.154707 -7.385303 -7.071930 6.367665 -14.469899 -2.116758 -5.500302 -5.521571 -14.723019 0.000002 0.000000 0.000003 0.161328 -3.303294 12.644324 0.074154 -0.828651 10.227198 0.074153 -0.828665 10.227180 0.000002 0.000000 0.000001 0.267850 -3.696086 17.647838 0.230485 -1.448341 18.081782 0.244190 -1.489718 18.617337 0.000000 -0.000000 -0.000001 0.484129 -4.249397 24.958244 0.356024 -1.787554 22.526293 0.356024 -1.787541 22.526312 -0.000002 0.000000 0.000001 -40.343615 7.814469 1.076286 61.308441 2.995330 -3.979104 -22.806927 0.258354 0.172203 -0.581106 -0.000002 0.000002 -0.000000 -0.000001 -0.000000 -49.559883 2.893492 -4.746347 94.297967 4.739070 0.187083 -3.445944 -0.238331 1.476034 8.235028 0.000001 0.000001 0.000000 0.000000 0.000000 
-0.281096 275.167664 94.070770 1.749867 -3.491944 2.367717 4.279102 -0.583848 -4.253295 8.543448 -1.072410 -1.554744 8.305978 -0.987968 -2.056637 -10.130227 0.847984 0.274630 -12.614641 4.297491 1.513073 0.000000 0.000000 0.000000 0.000000 0.000000 0.000000 0.000000 0.000000 0.000000 -0.021347 8.011826 -11.318312 -26.011097 -17.125716 -62.858975 0.000000 -18.656916 -0.000004 3.453247 3.133627 -6.841868 0.284515 3.952521 -15.747539 0.200031 1.519327 -15.000318 0.211995 1.563231 -15.444608 -0.000001 -0.000002 -0.000002 -5.168832 8.914442 7.632045 5.984810 12.669586 1.353365 -7.330842 -0.411352 13.152311 -0.000001 0.000000 0.000000 0.231366 3.750774 -13.708244 0.100079 1.079379 -10.594402 0.100090 1.079383 -10.594394 -0.000002 -0.000000 -0.000001 0.446381 4.441609 -20.786803 0.388984 2.100956 -20.976390 0.412091 2.160210 -21.597968 0.000001 0.000000 0.000001 0.842863 5.276722 -29.845147 0.625736 2.636333 -26.700246 0.625741 2.636336 -26.700237 0.000000 -0.000001 -0.000000 1.199488 1.970686 11.461011 -11.419208 16.168762 54.388250 0.000002 29.051708 -0.000010 26.102920 9.724498 18.190530 0.182904 -3.394921 13.801220 0.129283 -1.090878 13.517901 0.137022 -1.122558 13.918181 0.000001 0.000001 -0.000001 -6.154704 -7.385306 -7.071927 6.367667 -14.469899 -2.116755 -5.500308 -5.521570 -14.723017 0.000002 -0.000003 0.000001 0.161331 -3.303296 12.644325 0.074154 -0.828649 10.227199 0.074154 -0.828664 10.227181 0.000001 -0.000000 -0.000001 0.267856 -3.696087 17.647836 0.230480 -1.448341 18.081783 0.244193 -1.489720 18.617330 -0.000000 0.000000 0.000001 0.484137 -4.249399 24.958249 0.356027 -1.787554 22.526299 0.356022 -1.787540 22.526309 -0.000001 0.000004 0.000002 -37.061341 9.151122 2.534673 57.316639 1.649643 -2.181950 -22.032770 0.267157 0.145750 -0.581116 0.000003 -0.000001 -0.000000 0.000000 -0.000000 -57.763292 1.747801 -2.412445 106.313459 3.904463 0.185347 -12.681877 0.330363 -2.320936 8.569238 -0.000000 -0.000001 -0.000002 -0.000000 -0.000000 
-0.125179 277.438507 96.189499 1.529291 -3.823728 0.995636 4.442419 -0.564570 -3.614574 8.882277 -1.010940 -0.821003 8.720085 -0.879786 -1.133453 -9.564469 0.921222 0.667154 -11.360444 5.219847 1.826022 0.000000 0.000000 0.000000 0.000000 0.000000 0.000000 0.000000 0.000000 0.000000 -0.032551 8.194136 -11.417988 -26.236049 -17.504542 -62.857323 0.000002 -22.372443 0.000000 0.020615 3.192599 -6.525355 0.284516 3.952521 -15.747539 0.200036 1.519326 -15.000315 0.211994 1.563233 -15.444615 0.000001 -0.000001 0.000000 -5.168831 8.914441 7.632047 5.984804 12.669587 1.353365 -7.330845 -0.411352 13.152310 0.000001 0.000000 -0.000000 0.231367 3.750775 -13.708240 0.100079 1.079377 -10.594404 0.100090 1.079378 -10.594395 -0.000000 -0.000000 0.000001 0.446386 4.441609 -20.786805 0.388989 2.100951 -20.976385 0.412091 2.160214 -21.597961 0.000002 0.000002 0.000005 0.842860 5.276722 -29.845150 0.625735 2.636331 -26.700241 0.625746 2.636334 -26.700232 -0.000001 -0.000001 -0.000000 1.182029 2.082214 11.222702 -12.765986 14.965259 54.861039 -0.000004 28.572186 0.000011 26.321935 9.137047 17.020596 0.182902 -3.394920 13.801219 0.129286 -1.090878 13.517901 0.137019 -1.122558 13.918176 0.000003 -0.000002 -0.000001 -6.154702 -7.385304 -7.071926 6.367675 -14.469896 -2.116761 -5.500303 -5.521567 -14.723021 0.000000 -0.000002 0.000002 0.161333 -3.303293 12.644326 0.074150 -0.828651 10.227199 0.074147 -0.828666 10.227179 0.000007 -0.000001 0.000001 0.267855 -3.696086 17.647836 0.230483 -1.448341 18.081783 0.244191 -1.489719 18.617332 -0.000002 0.000001 0.000000 0.484127 -4.249399 24.958245 0.356024 -1.787554 22.526299 0.356022 -1.787540 22.526309 -0.000001 -0.000000 0.000005 -34.943381 10.444183 3.884733 54.788868 0.376992 -0.950618 -21.704919 0.274371 0.115196 -0.581108 0.000003 0.000000 -0.000000 0.000001 0.000000 -63.909711 0.353513 -1.118174 113.267520 3.466224 0.185184 -18.702740 0.973955 -5.147862 8.624272 -0.000000 0.000000 -0.000001 -0.000000 -0.000000 
